<svg width="512" height="512" viewBox="0 0 512 512" fill="none" xmlns="http://www.w3.org/2000/svg">
<g clip-path="url(#clip0_426_410)">
<mask id="mask0_426_410" style="mask-type:alpha" maskUnits="userSpaceOnUse" x="0" y="0" width="512" height="512">
<circle cx="256" cy="256" r="256" fill="#D9D9D9"/>
</mask>
<g mask="url(#mask0_426_410)">
<rect x="-256" width="1024" height="512" fill="url(#paint0_radial_426_410)"/>
</g>
<g filter="url(#filter0_ddddi_426_410)">
<path d="M288.489 176.785C288.489 193.277 273.943 206.646 256 206.646C238.057 206.646 223.511 193.277 223.511 176.785C223.511 160.293 238.057 146.924 256 146.924C273.943 146.924 288.489 160.293 288.489 176.785Z" fill="white"/>
<path d="M315.563 285.776C315.563 308.864 288.896 309.667 256 309.667C223.104 309.667 196.437 308.864 196.437 285.776C196.437 262.688 211.328 224.563 256 224.563C300.672 224.563 315.563 262.688 315.563 285.776Z" fill="white"/>
<path d="M169.363 249.945C187.306 249.945 201.852 236.575 201.852 220.084C201.852 203.592 187.306 190.223 169.363 190.223C151.42 190.223 136.874 203.592 136.874 220.084C136.874 236.575 151.42 249.945 169.363 249.945Z" fill="white"/>
<path d="M375.125 220.084C375.125 236.575 360.58 249.945 342.637 249.945C324.694 249.945 310.148 236.575 310.148 220.084C310.148 203.592 324.694 190.223 342.637 190.223C360.58 190.223 375.125 203.592 375.125 220.084Z" fill="white"/>
<path fill-rule="evenodd" clip-rule="evenodd" d="M256 406.778C351.975 406.778 429.778 336.984 429.778 250.889C429.778 202.327 405.025 158.952 366.219 130.362C336.827 108.351 298.247 95 256 95C213.752 95 175.173 108.351 145.78 130.362C106.975 158.952 82.2222 202.327 82.2222 250.889C82.2222 336.984 160.025 406.778 256 406.778ZM256 372.278C345.619 372.278 416.438 310.704 416.438 236.833C416.438 162.962 345.619 101.389 256 101.389C166.381 101.389 95.5622 162.962 95.5622 236.833C95.5622 310.704 166.381 372.278 256 372.278Z" fill="white"/>
</g>
</g>
<defs>
<filter id="filter0_ddddi_426_410" x="39.5555" y="52.3333" width="432.889" height="397.111" filterUnits="userSpaceOnUse" color-interpolation-filters="sRGB">
<feFlood flood-opacity="0" result="BackgroundImageFix"/>
<feColorMatrix in="SourceAlpha" type="matrix" values="0 0 0 0 0 0 0 0 0 0 0 0 0 0 0 0 0 0 127 0" result="hardAlpha"/>
<feOffset/>
<feGaussianBlur stdDeviation="1.33333"/>
<feComposite in2="hardAlpha" operator="out"/>
<feColorMatrix type="matrix" values="0 0 0 0 0.3 0 0 0 0 0.12 0 0 0 0 0 0 0 0 1 0"/>
<feBlend mode="normal" in2="BackgroundImageFix" result="effect1_dropShadow_426_410"/>
<feColorMatrix in="SourceAlpha" type="matrix" values="0 0 0 0 0 0 0 0 0 0 0 0 0 0 0 0 0 0 127 0" result="hardAlpha"/>
<feOffset/>
<feGaussianBlur stdDeviation="5.33333"/>
<feComposite in2="hardAlpha" operator="out"/>
<feColorMatrix type="matrix" values="0 0 0 0 1 0 0 0 0 0.8 0 0 0 0 0 0 0 0 0.6 0"/>
<feBlend mode="normal" in2="effect1_dropShadow_426_410" result="effect2_dropShadow_426_410"/>
<feColorMatrix in="SourceAlpha" type="matrix" values="0 0 0 0 0 0 0 0 0 0 0 0 0 0 0 0 0 0 127 0" result="hardAlpha"/>
<feOffset/>
<feGaussianBlur stdDeviation="10.6667"/>
<feComposite in2="hardAlpha" operator="out"/>
<feColorMatrix type="matrix" values="0 0 0 0 1 0 0 0 0 0.8 0 0 0 0 0 0 0 0 0.7 0"/>
<feBlend mode="normal" in2="effect2_dropShadow_426_410" result="effect3_dropShadow_426_410"/>
<feColorMatrix in="SourceAlpha" type="matrix" values="0 0 0 0 0 0 0 0 0 0 0 0 0 0 0 0 0 0 127 0" result="hardAlpha"/>
<feOffset/>
<feGaussianBlur stdDeviation="21.3333"/>
<feComposite in2="hardAlpha" operator="out"/>
<feColorMatrix type="matrix" values="0 0 0 0 1 0 0 0 0 0.8 0 0 0 0 0 0 0 0 0.8 0"/>
<feBlend mode="normal" in2="effect3_dropShadow_426_410" result="effect4_dropShadow_426_410"/>
<feBlend mode="normal" in="SourceGraphic" in2="effect4_dropShadow_426_410" result="shape"/>
<feColorMatrix in="SourceAlpha" type="matrix" values="0 0 0 0 0 0 0 0 0 0 0 0 0 0 0 0 0 0 127 0" result="hardAlpha"/>
<feOffset/>
<feGaussianBlur stdDeviation="1.33333"/>
<feComposite in2="hardAlpha" operator="arithmetic" k2="-1" k3="1"/>
<feColorMatrix type="matrix" values="0 0 0 0 1 0 0 0 0 0.6 0 0 0 0 0 0 0 0 1 0"/>
<feBlend mode="normal" in2="shape" result="effect5_innerShadow_426_410"/>
</filter>
<radialGradient id="paint0_radial_426_410" cx="0" cy="0" r="1" gradientUnits="userSpaceOnUse" gradientTransform="translate(256 -82.5601) rotate(90) scale(594.56 796.44)">
<stop stop-color="#FFD633"/>
<stop offset="0.40625" stop-color="#FFA31A"/>
<stop offset="0.859375" stop-color="#FF6500"/>
</radialGradient>
<clipPath id="clip0_426_410">
<rect width="512" height="512" fill="white"/>
</clipPath>
</defs>
</svg>
